<svg xmlns="http://www.w3.org/2000/svg" viewBox="0 0 128 128" width="512" height="512">
  <rect width="128" height="128" rx="24" fill="#fafafa" stroke="#e5e7eb" stroke-width="2"/>
  <path fill="#111827" d="M125.4 54.8L73.2 2.6c-3.4-3.4-9-3.4-12.4 0L49 14.4l16.1 16.1c3.1-.7 6.5.2 8.7 2.4 2.8 2.8 3.5 6.8 1.8 10.1l15.1 15.1c3.3-1.6 7.3-1 10.1 1.8 3.9 3.9 3.9 10.2 0 14.1-3.9 3.9-10.2 3.9-14.1 0-2.6-2.6-3.4-6.3-2-9.5l-14-14c-1 3.2-3.7 5.7-7.2 6.5v22c1.8 1.1 3 3 3 5.3 0 3.5-2.8 6.3-6.3 6.3s-6.3-2.8-6.3-6.3c0-2.3 1.2-4.2 3-5.3v-22c-3.5-.8-6.2-3.4-7.2-6.5l-14 14c1.4 3.2.6 6.9-2 9.5-3.9 3.9-10.2 3.9-14.1 0-3.9-3.9-3.9-10.2 0-14.1 2.8-2.8 6.8-3.4 10.1-1.8l15.1-15.1c-1.6-3.3-1-7.3 1.8-10.1 2.2-2.2 5.6-3.1 8.7-2.4l-16.1-16.1-23.4 23.4c-3.4 3.4-3.4 9 0 12.4l52.2 52.2c3.4 3.4 9 3.4 12.4 0l52.2-52.2c3.4-3.4 3.4-8.9 0-12.3z" transform="scale(0.8) translate(16,16)"/>
</svg>
